<?xml version="1.0" encoding="UTF-8" standalone="no"?>
<svg xmlns:rdf="http://www.w3.org/1999/02/22-rdf-syntax-ns#" xmlns="http://www.w3.org/2000/svg" xml:space="preserve" height="68.701" viewBox="0 0 62.508751 68.701248" width="62.509" version="1.1" xmlns:cc="http://creativecommons.org/ns#" xmlns:dc="http://purl.org/dc/elements/1.1/"><g transform="matrix(1.25 0 0 -1.25 -506.42 540.75)"><g><path d="m454.34 419.15v12.649h-17.704s0.056-19.843 0.072-25.978c-2.822 5.689-12.891 25.978-12.891 25.978h-8.409l0.008-0.016-9.483 0.018v-12.651h3.355v-28.044h-3.355v-12.648h17.628v25.789c2.806-5.644 12.829-25.807 12.829-25.807h8.921l-0.005 0.009 9.034 0.01v12.647h-3.354v28.044h3.354" fill="#fff"/><path d="m417.01 430.82h6.202l14.481-29.179-0.081 29.179h15.754v-10.702h-3.354v-29.99h3.354v-10.701l-9.654-0.011-26.702 51.404"/><path d="m443.71 379.41h-6.715l-14.407 28.979v-28.961h-15.68v10.701h3.355v29.991h-3.355v10.701l10.122-0.018 26.68-51.393" fill="#c00"/></g></g></svg>
